<svg xmlns="http://www.w3.org/2000/svg" width="79" height="79" viewBox="0 0 79 79">
  <g fill="none" fill-rule="evenodd" transform="translate(1 1)">
    <circle cx="38.5" cy="38.5" r="38.5" fill="#0004B7" stroke="#FFF" stroke-width="2"/>
    <path fill="#FFF" d="M15.5555556 0C10.8907775 0 7.11111111 3.73313222 7.11111111 8.34047894 7.11111111 12.9478257 10.8907775 16.6829268 15.5555556 16.6829268 20.2203336 16.6829268 24 12.9478257 24 8.34047894 23.9980065 3.73510117 20.2183402.00196895159 15.5555556.00196895159L15.5555556 0zM15.5555556 2.70730844C18.707271 2.70730844 21.260938 5.23150438 21.260938 8.34244789 21.260938 11.4553604 18.707271 13.9795563 15.5555556 13.9795563 12.4038401 13.9795563 9.85017312 11.4553604 9.85017312 8.34244789 9.85216661 5.23150438 12.4058336 2.70927739 15.5555556 2.70730844L15.5555556 2.70730844zM23.5294118 19.3170732L8.47264321 19.3170732C3.79347547 19.3170732 0 23.0493394 0 27.6555022L0 27.6615709 0 36 32 36 32 27.6615709C32 23.0554082 28.2065245 19.3231419 23.5294118 19.3231419L23.5294118 19.3170732zM23.5294118 22.1026182C26.6509119 22.1026182 29.1805805 24.5928187 29.1805805 27.6656168L29.1805805 33.2286153 2.82352941 33.2286153 2.82352941 27.6615709C2.82352941 24.5887729 5.35319805 22.0985724 8.47469818 22.0985724L23.5294118 22.0985724 23.5294118 22.1026182z" transform="translate(23 20)"/>
  </g>
</svg>
